<?xml version="1.0" standalone="no"?><svg xmlns="http://www.w3.org/2000/svg" viewBox="0 0 1440 320"><path fill="#0099ff" fill-opacity="1" d="M0,32L0,288L36.9,288L36.9,288L73.8,288L73.8,192L110.8,192L110.8,64L147.7,64L147.7,256L184.6,256L184.6,64L221.5,64L221.5,96L258.5,96L258.5,320L295.4,320L295.4,64L332.3,64L332.3,96L369.2,96L369.2,320L406.2,320L406.2,128L443.1,128L443.1,288L480,288L480,288L516.9,288L516.9,160L553.8,160L553.8,96L590.8,96L590.8,160L627.7,160L627.7,128L664.6,128L664.6,0L701.5,0L701.5,224L738.5,224L738.5,96L775.4,96L775.4,64L812.3,64L812.3,0L849.2,0L849.2,256L886.2,256L886.2,96L923.1,96L923.1,224L960,224L960,160L996.9,160L996.9,224L1033.8,224L1033.8,256L1070.8,256L1070.8,288L1107.7,288L1107.7,224L1144.6,224L1144.6,64L1181.5,64L1181.5,96L1218.5,96L1218.5,32L1255.4,32L1255.4,256L1292.3,256L1292.3,192L1329.2,192L1329.2,96L1366.2,96L1366.2,128L1403.1,128L1403.1,64L1440,64L1440,320L1403.1,320L1403.1,320L1366.2,320L1366.2,320L1329.2,320L1329.2,320L1292.3,320L1292.3,320L1255.4,320L1255.4,320L1218.5,320L1218.5,320L1181.5,320L1181.5,320L1144.6,320L1144.6,320L1107.7,320L1107.7,320L1070.8,320L1070.8,320L1033.8,320L1033.8,320L996.9,320L996.9,320L960,320L960,320L923.1,320L923.1,320L886.2,320L886.2,320L849.2,320L849.2,320L812.3,320L812.3,320L775.4,320L775.4,320L738.5,320L738.5,320L701.5,320L701.5,320L664.6,320L664.6,320L627.7,320L627.7,320L590.8,320L590.8,320L553.8,320L553.8,320L516.9,320L516.9,320L480,320L480,320L443.1,320L443.1,320L406.2,320L406.2,320L369.2,320L369.2,320L332.3,320L332.3,320L295.4,320L295.4,320L258.5,320L258.5,320L221.5,320L221.5,320L184.6,320L184.6,320L147.7,320L147.7,320L110.8,320L110.8,320L73.8,320L73.8,320L36.9,320L36.9,320L0,320L0,320Z" data-darkreader-inline-fill="" style="--darkreader-inline-fill: var(--darkreader-background-0099ff, #007acc);"></path></svg>